<svg xmlns="http://www.w3.org/2000/svg" viewBox="0 0 278.59 67.81"><defs><style>.cls-1{fill:#ff6711;}.cls-2{fill:#878787;}.cls-3{fill:#ffb600;}.cls-4{fill:#000202;}.cls-5{fill:#fff;}</style></defs><g id="Capa_2" data-name="Capa 2"><g id="Capa_1-2" data-name="Capa 1"><path class="cls-1" d="M179.59,37.6l-1,6.15q.45-2.91.89-5.82A1.07,1.07,0,0,1,179.59,37.6Z"/><path class="cls-2" d="M95.63,18.86H84.2V.32h2.13V17h9.3Z"/><path class="cls-2" d="M121,18.86H109.31V.32H121V2.1h-9.55V8.55h9v1.83h-9v6.7H121Z"/><path class="cls-2" d="M151,18.86h-2.18l-2-4.77h-9.71l-2,4.77h-2.24L141,.32h1.88ZM142,2.81l-4.07,9.5h8.18Z"/><path class="cls-2" d="M177.43,18.86h-2.24l-2.29-6.15a2.69,2.69,0,0,0-1.14-1.52,4.43,4.43,0,0,0-2.11-.41H165v8.08h-2.14V.32h7.37a7,7,0,0,1,4.6,1.34,4.74,4.74,0,0,1,1.6,3.84,4.68,4.68,0,0,1-3.71,4.83,3,3,0,0,1,2.34,2.28ZM165,9h5c2.84,0,4.27-1.17,4.27-3.51s-1.43-3.4-4.27-3.4h-5Z"/><path class="cls-2" d="M203.91,15.26V.32h2V18.86h-1.63L193.09,4V18.86h-2V.32h1.62Z"/><path class="cls-2" d="M221.76,18.86h-2.13V.32h2.13Z"/><path class="cls-2" d="M248.24,15.26V.32h2V18.86h-1.63L237.42,4V18.86h-2V.32h1.63Z"/><path class="cls-2" d="M272,9.21h6.55V17.8a13.89,13.89,0,0,1-6.45,1.27,8.45,8.45,0,0,1-6.51-2.52,9.9,9.9,0,0,1-2.33-7,9.86,9.86,0,0,1,2.33-6.91A8.23,8.23,0,0,1,272,.11a8.87,8.87,0,0,1,6.4,2.34l-.87,1.68A8.17,8.17,0,0,0,272,1.94a6,6,0,0,0-4.83,2,8.44,8.44,0,0,0-1.68,5.66,8.53,8.53,0,0,0,1.73,5.75,6.25,6.25,0,0,0,5,2,13.37,13.37,0,0,0,4.47-.76V10.89H272Z"/><path class="cls-3" d="M219.27,42.92,207.46,29.74,195.65,42.92h6.24c-.28,1.61-.57,3.22-.91,4.82-1.1,4.64-4,9.56-8.57,10.29-2.7.25-4.69-2.77-4.2-5.61.41-3.29,1.11-8,1.77-12.26l2-10.39H180.86l-1.27,7.83-1,6.15c-.08.53-.16,1.06-.25,1.6-.33,2.14-.65,4.29-1,6.44-.4,3.64-.69,7.64,1.06,10.93a9.11,9.11,0,0,0,8.45,5c4.94.1,9.53-2.83,12.67-6.94-.07,1.94-.1,3.88-.11,5.82h10.35a194.16,194.16,0,0,1,3-23.67Z"/><path class="cls-4" d="M85.85,31.84c6.38-5.05,15.11-3.59,21.64.36-.79,2.65-1.63,5.3-2.48,7.93-3.76-2.18-8.29-4.34-12.51-2.57a2.23,2.23,0,0,0,0,3.94c4,1.89,8.81,2.29,11.76,6.26,4.37,5.8,1.26,15.5-4.74,18.25-7,3.24-15.24,1.73-21.47-2.78l2.46-8.3c4,2.85,8.86,5.24,13.7,4.06,1.47-.3,2.1-1.84,2.75-3.14-2.77-4-8-3-11.45-5.85C79.84,46.06,80.5,35.81,85.85,31.84Z"/><path class="cls-4" d="M116.7,37.13c6.1-8.87,18.55-11.25,26.84-4.9-.52,3-1,5.91-1.55,8.88-2.81-2.29-6.26-4.23-9.84-3.3-6.13,1-10.38,9-8.11,15.49a7.82,7.82,0,0,0,8.65,5.49c2.69-.3,4.95-2.08,7.28-3.42-.43,3-.93,6-1.39,9a17.87,17.87,0,0,1-15.26,2.77c-5.14-1.35-9.15-6.33-10.29-12A23.53,23.53,0,0,1,116.7,37.13Z"/><path class="cls-4" d="M233.82,35.67c3.73-5.12,10-8.45,15.9-6.42,2.89.87,4.73,3.73,5.82,6.68,3.56-4.74,9-7.94,14.68-7.17a8.9,8.9,0,0,1,7.37,6.66c1,3.1.5,6.44.11,9.61-1.11,7.19-2.2,14.38-3.33,21.56-3.62,0-7.23,0-10.84,0,1-7.44,2.36-14.82,3.41-22.25.35-2-.06-4.51-1.82-5.58-2.19-1.09-4.57.25-6.21,1.89-2.62,2.57-3.9,6.37-4.51,10.1-.86,5.29-1.71,10.57-2.51,15.86-3.62,0-7.25,0-10.87,0,1-7.45,2.36-14.84,3.42-22.28.35-2-.05-4.41-1.73-5.5-1.93-1.06-4.12,0-5.69,1.33-2.92,2.54-4.37,6.59-5,10.55-.88,5.3-1.71,10.61-2.55,15.92-3.64,0-7.27,0-10.9,0,1.64-12.27,4.43-24.37,5.15-36.77h10.35Q234,32.73,233.82,35.67Z"/><path class="cls-4" d="M161.6,36.47a15.93,15.93,0,0,1,12.68-7.61c-.42,4.34-1.3,8.61-1.84,12.93a8.38,8.38,0,0,0-10.95,4.5c-2.83,6.28-2.81,13.54-4.15,20.3-3.62,0-7.24,0-10.86,0,1.47-12.29,4.43-24.37,5-36.77,3.44,0,6.88,0,10.32,0C161.79,32,161.73,34.24,161.6,36.47Z"/><rect class="cls-3" width="69.32" height="67.81" rx="13.35"/><path class="cls-1" d="M178.59,43.75c-.08.53-.16,1.06-.25,1.6h0Z"/><path class="cls-5" d="M62.25,29,48.41,13.53,34.58,29h7.3c-.32,1.89-.66,3.77-1.05,5.64-1.29,5.44-4.7,11.2-10,12-3.17.3-5.5-3.24-4.92-6.57.48-3.85,1.3-9.37,2.07-14.36l2.34-12.17h-13l-1.49,9.17L14.6,29.94c-.1.62-.19,1.24-.29,1.87-.39,2.51-.77,5-1.15,7.54-.47,4.27-.81,8.95,1.24,12.81A10.65,10.65,0,0,0,24.3,58c5.78.12,11.16-3.31,14.84-8.13Q39,53.29,39,56.69H51.13c.43-9.34,2-18.53,3.56-27.72Z"/></g></g></svg>