<?xml version="1.0" encoding="utf-8"?>
<!-- Generator: Adobe Illustrator 25.2.1, SVG Export Plug-In . SVG Version: 6.00 Build 0)  -->
<svg version="1.1" id="Capa_1" xmlns="http://www.w3.org/2000/svg" xmlns:xlink="http://www.w3.org/1999/xlink" x="0px" y="0px"
	 viewBox="0 0 278.6 67.8" style="enable-background:new 0 0 278.6 67.8;" xml:space="preserve">
<style type="text/css">
	.st0{fill:#FF6711;}
	.st1{fill:#DBDBDB;}
	.st2{fill:#FFB600;}
	.st3{fill:#FFFFFF;}
</style>
<g id="Capa_2_1_">
	<g id="Capa_1-2">
		<path class="st0" d="M179.6,37.6l-1,6.2c0.3-1.9,0.6-3.9,0.9-5.8C179.5,37.8,179.5,37.7,179.6,37.6z"/>
		<path class="st1" d="M95.6,18.9H84.2V0.3h2.1V17h9.3V18.9z"/>
		<path class="st1" d="M121,18.9h-11.7V0.3H121v1.8h-9.6v6.5h9v1.8h-9v6.7h9.6V18.9z"/>
		<path class="st1" d="M151,18.9h-2.2l-2-4.8h-9.7l-2,4.8h-2.2L141,0.3h1.9L151,18.9z M142,2.8l-4.1,9.5h8.2L142,2.8z"/>
		<path class="st1" d="M177.4,18.9h-2.2l-2.3-6.1c-0.2-0.6-0.6-1.2-1.1-1.5c-0.7-0.3-1.4-0.4-2.1-0.4H165v8.1h-2.1V0.3h7.4
			c1.6-0.1,3.3,0.4,4.6,1.3c1.1,1,1.7,2.4,1.6,3.8c0.1,2.3-1.5,4.4-3.7,4.8c1.2,0.2,2.1,1.1,2.3,2.3L177.4,18.9z M165,9h5
			c2.8,0,4.3-1.2,4.3-3.5s-1.4-3.4-4.3-3.4h-5V9z"/>
		<path class="st1" d="M203.9,15.3V0.3h2v18.5h-1.6L193.1,4v14.9h-2V0.3h1.6L203.9,15.3z"/>
		<path class="st1" d="M221.8,18.9h-2.1V0.3h2.1V18.9z"/>
		<path class="st1" d="M248.2,15.3V0.3h2v18.5h-1.6L237.4,4v14.9h-2V0.3h1.6L248.2,15.3z"/>
		<path class="st1" d="M272,9.2h6.5v8.6c-2,0.9-4.2,1.4-6.5,1.3c-2.4,0.1-4.8-0.8-6.5-2.5c-1.6-1.9-2.5-4.5-2.3-7
			c-0.1-2.5,0.7-5,2.3-6.9c1.7-1.7,4-2.7,6.4-2.5c2.4-0.1,4.7,0.7,6.4,2.3l-0.9,1.7c-1.5-1.4-3.5-2.2-5.5-2.2
			c-1.8-0.1-3.6,0.6-4.8,2c-1.2,1.6-1.8,3.6-1.7,5.7c-0.1,2.1,0.5,4.1,1.7,5.8c1.3,1.4,3.1,2.1,5,2c1.5,0,3-0.3,4.5-0.8v-5.7H272
			V9.2z"/>
		<path class="st2" d="M219.3,42.9l-11.8-13.2l-11.8,13.2h6.2c-0.3,1.6-0.6,3.2-0.9,4.8c-1.1,4.6-4,9.6-8.6,10.3
			c-2.7,0.2-4.7-2.8-4.2-5.6c0.4-3.3,1.1-8,1.8-12.3l2-10.4h-11.1l-1.3,7.8l-1,6.2c-0.1,0.5-0.2,1.1-0.2,1.6c-0.3,2.1-0.6,4.3-1,6.4
			c-0.4,3.6-0.7,7.6,1.1,10.9c1.6,3.2,4.9,5.1,8.4,5c4.9,0.1,9.5-2.8,12.7-6.9c-0.1,1.9-0.1,3.9-0.1,5.8h10.4
			c0.5-7.9,1.5-15.8,3-23.7L219.3,42.9z"/>
		<path class="st3" d="M85.8,31.8c6.4-5,15.1-3.6,21.6,0.4c-0.8,2.7-1.6,5.3-2.5,7.9c-3.8-2.2-8.3-4.3-12.5-2.6
			c-1.1,0.6-1.5,1.9-0.9,3c0.2,0.4,0.5,0.7,0.9,0.9c4,1.9,8.8,2.3,11.8,6.3c4.4,5.8,1.3,15.5-4.7,18.2c-7,3.2-15.2,1.7-21.5-2.8
			l2.5-8.3c4,2.8,8.9,5.2,13.7,4.1c1.5-0.3,2.1-1.8,2.8-3.1c-2.8-4-8-3-11.4-5.8C79.8,46.1,80.5,35.8,85.8,31.8z"/>
		<path class="st3" d="M116.7,37.1c6.1-8.9,18.6-11.2,26.8-4.9c-0.5,3-1,5.9-1.6,8.9c-2.8-2.3-6.3-4.2-9.8-3.3
			c-6.1,1-10.4,9-8.1,15.5c1.1,3.7,4.8,6.1,8.6,5.5c2.7-0.3,4.9-2.1,7.3-3.4c-0.4,3-0.9,6-1.4,9c-4.4,3.2-10,4.2-15.3,2.8
			c-5.1-1.3-9.2-6.3-10.3-12C111.8,48.9,113.1,42.4,116.7,37.1z"/>
		<path class="st3" d="M233.8,35.7c3.7-5.1,10-8.5,15.9-6.4c2.9,0.9,4.7,3.7,5.8,6.7c3.6-4.7,9-7.9,14.7-7.2
			c3.6,0.5,6.5,3.1,7.4,6.7c1,3.1,0.5,6.4,0.1,9.6c-1.1,7.2-2.2,14.4-3.3,21.6c-3.6,0-7.2,0-10.8,0c1-7.4,2.4-14.8,3.4-22.2
			c0.4-2-0.1-4.5-1.8-5.6c-2.2-1.1-4.6,0.2-6.2,1.9c-2.6,2.6-3.9,6.4-4.5,10.1c-0.9,5.3-1.7,10.6-2.5,15.9c-3.6,0-7.2,0-10.9,0
			c1-7.5,2.4-14.8,3.4-22.3c0.4-2-0.1-4.4-1.7-5.5c-1.9-1.1-4.1,0-5.7,1.3c-2.9,2.5-4.4,6.6-5,10.5c-0.9,5.3-1.7,10.6-2.6,15.9
			c-3.6,0-7.3,0-10.9,0c1.6-12.3,4.4-24.4,5.1-36.8h10.4C234,31.8,233.9,33.7,233.8,35.7z"/>
		<path class="st3" d="M161.6,36.5c2.7-4.5,7.5-7.3,12.7-7.6c-0.4,4.3-1.3,8.6-1.8,12.9c-4.3-1.8-9.2,0.2-10.9,4.5
			c-2.8,6.3-2.8,13.5-4.1,20.3c-3.6,0-7.2,0-10.9,0c1.5-12.3,4.4-24.4,5-36.8c3.4,0,6.9,0,10.3,0C161.8,32,161.7,34.2,161.6,36.5z"
			/>
		<path class="st2" d="M13.4,0H56c7.4,0,13.3,6,13.3,13.4v41.1c0,7.4-6,13.3-13.3,13.3H13.4C6,67.8,0,61.8,0,54.5V13.4
			C0,6,6,0,13.4,0z"/>
		<path class="st0" d="M178.6,43.8c-0.1,0.5-0.2,1.1-0.2,1.6l0,0L178.6,43.8z"/>
		<path class="st3" d="M62.2,29L48.4,13.5L34.6,29h7.3c-0.3,1.9-0.7,3.8-1,5.6c-1.3,5.4-4.7,11.2-10,12c-3.2,0.3-5.5-3.2-4.9-6.6
			c0.5-3.8,1.3-9.4,2.1-14.4l2.3-12.2h-13l-1.5,9.2l-1.2,7.2c-0.1,0.6-0.2,1.2-0.3,1.9c-0.4,2.5-0.8,5-1.1,7.5
			c-0.5,4.3-0.8,9,1.2,12.8c1.9,3.7,5.7,6,9.9,5.8c5.8,0.1,11.2-3.3,14.8-8.1C39,52.1,39,54.4,39,56.7h12.1c0.4-9.3,2-18.5,3.6-27.7
			L62.2,29z"/>
	</g>
</g>
</svg>
